<?xml version="1.0" encoding="UTF-8"?>
<svg id="logo" xmlns="http://www.w3.org/2000/svg" version="1.1" viewBox="0 0 1200 371.6" fill="#FFFFFF">
  <!-- Generator: Adobe Illustrator 29.5.0, SVG Export Plug-In . SVG Version: 2.1.0 Build 137)  -->
  <path d="M538.9,204h63.5l-33.6-54.2-61.6,97.8h-28.1l75-117.4c3.2-4.8,8.7-7.6,14.7-7.6s11.3,2.8,14.5,7.4l75.2,117.6h-28.1l-13.2-21.9h-64.3l-14-21.8M830.4,225.8v-102h-23.9v112c0,3.1,1.3,6,3.5,8.2,2.3,2.3,5.4,3.6,8.7,3.6h108.5l14.1-21.9h-111M436.5,207.6c23.2,0,41.8-18.8,41.8-41.9s-18.6-41.9-41.8-41.9h-104.2v123.8h23.8v-101.9h78.8c11.1,0,20,8.9,20,20s-9,20.1-20,20.1h-67.1c0,0,71.1,61.9,71.1,61.9h34.5l-47.8-40.1h10.8M185.8,247.7h72c34.2,0,61.8-27.7,61.8-61.9s-27.6-62-61.8-62h-72c-34.2,0-61.9,27.7-61.9,62s27.7,61.9,61.9,61.9M256.1,225.9h-68.7c-22.1,0-40.1-18-40.1-40.1s17.9-40.1,40.1-40.1h68.7c22.2,0,40.1,17.9,40.1,40.1s-17.9,40.1-40.1,40.1M708.3,247.7h73.5l13.9-21.8h-85.8c-22.2,0-40.1-18-40.1-40.1s17.9-40.1,40.1-40.1h69.8l14.1-21.9h-85.5c-34.2,0-62,27.7-62,62s27.8,61.9,62,61.9M999.5,225.9c-18.3,0-33.8-12.3-38.6-29.2h101.8l14-21.8h-115.8c4.8-16.9,20.2-29.2,38.6-29.2h69.9l14-21.9h-85.4c-34.2,0-61.9,27.7-61.9,62s27.7,61.9,61.9,61.9h73.5l14-21.8h-85.9"/>
</svg>
