<svg xmlns="http://www.w3.org/2000/svg" width="1100" height="260" viewBox="0 0 1100 260" role="img" aria-labelledby="title desc">
  <title id="title">VS Code Codex extension search result</title>
  <desc id="desc">Screenshot-style view of the VS Code extension result named Codex - OpenAI's coding agent, published by OpenAI.</desc>
  <rect width="1100" height="260" fill="#fbf9f7"/>
  <rect x="0" y="0" width="1100" height="12" fill="#007d7e"/>
  <text x="42" y="55" font-family="Arial, Helvetica, sans-serif" font-size="28" font-weight="700" fill="#312d2a">Select the Codex extension in VS Code</text>
  <g font-family="Arial, Helvetica, sans-serif">
    <rect x="42" y="86" width="1016" height="118" fill="#f6f6f6" stroke="#d7d0c8" stroke-width="2"/>
    <rect x="58" y="112" width="64" height="64" fill="#050505"/>
    <circle cx="90" cy="144" r="18" fill="none" stroke="#ffffff" stroke-width="4"/>
    <path d="M90 122 C105 128 108 141 99 153 C87 169 66 160 68 142 C70 126 85 118 102 128" fill="none" stroke="#ffffff" stroke-width="4" stroke-linecap="round"/>
    <path d="M74 134 C84 120 103 124 108 140 C113 156 97 171 80 164" fill="none" stroke="#ffffff" stroke-width="4" stroke-linecap="round"/>
    <text x="145" y="128" font-size="21" font-weight="700" fill="#5f6368">Codex &#8211; OpenAI&apos;s coding agent</text>
    <text x="145" y="156" font-size="14" fill="#5f6368">Codex is a coding agent that works with you everywhere you code - included in ChatGPT Plus, Pro...</text>
    <g transform="translate(145 174)">
      <path d="M0 9 L7 2 L14 9 L22 1 L25 6 L14 20 L0 14 Z" fill="#0078d4"/>
      <text x="32" y="16" font-size="17" font-weight="700" fill="#5f6368">OpenAI</text>
    </g>
    <g fill="none" stroke="#5f6368" stroke-width="2" stroke-linecap="round" transform="translate(960 104)">
      <path d="M12 2 A10 10 0 1 0 22 12"/>
      <path d="M12 2 L12 9 L5 9"/>
    </g>
    <text x="988" y="119" font-size="16" fill="#5f6368">56ms</text>
    <g fill="none" stroke="#5f6368" stroke-width="2" stroke-linecap="round" transform="translate(1014 148)">
      <circle cx="16" cy="16" r="5"/>
      <path d="M16 2 V8 M16 24 V30 M2 16 H8 M24 16 H30 M6 6 L10 10 M22 22 L26 26 M26 6 L22 10 M10 22 L6 26"/>
    </g>
  </g>
  <g font-family="Arial, Helvetica, sans-serif">
    <rect x="42" y="218" width="1016" height="30" fill="#312d2a"/>
    <text x="62" y="239" font-size="15" fill="#ffffff">Search for Codex in Extensions, then select the OpenAI result that matches this listing.</text>
  </g>
</svg>
