<?xml version="1.0" encoding="UTF-8"?>
<svg id="Layer_1" xmlns="http://www.w3.org/2000/svg" version="1.1" viewBox="0 0 1200 420">
  <!-- Generator: Adobe Illustrator 29.5.0, SVG Export Plug-In . SVG Version: 2.1.0 Build 137)  -->
  <defs>
    <style>
      .st0 {
        fill: #fff;
      }
    </style>
  </defs>
  <g>
    <path class="st0" d="M649.52,128.26h-31.27v29.75h16.4v37.32l-68.63,156.4c-8.25,19.11-8.37,34.99-.35,47.19,7.52,11.43,21.51,17.73,39.42,17.73h136.03c-3.87-6.96-8.03-14.63-11.96-29.75h-124.07c-7.12,0-12.84-1.7-14.56-4.32-1.58-2.4-1.67-8.67,2.77-18.97l69.85-159.17c.82-1.88,1.25-3.92,1.25-5.98v-55.32c0-8.22-6.66-14.88-14.88-14.88"/>
    <polyline class="st0" points="48.13 214.32 5.09 214.32 5.09 414.91 136.42 414.91 136.42 376.56 48.13 376.56 48.13 214.32"/>
    <path class="st0" d="M206.51,268.95h-57.12v16.84l15.18,12.69v116.44h41.94v-145.96M206.51,211.01h-46.35v32.28h46.35v-32.28"/>
    <polyline class="st0" points="376.19 268.95 333.42 268.95 302.79 362.21 272.17 268.95 227.74 268.95 284.86 414.91 319.07 414.91 376.19 268.95"/>
    <path class="st0" d="M425.3,326.07c1.47-20.05,12.05-30.07,31.73-30.07,7.54,0,13.61,2.67,18.21,8,4.6,5.34,7.08,12.69,7.45,22.07h-57.39M457.59,265.64c-22.81,0-40.7,6.72-53.67,20.14-12.97,13.43-19.45,32.01-19.45,55.73s6.71,43.83,20.14,56.98c13.42,13.15,32.64,19.72,57.67,19.72,19.68,0,36.6-3.4,50.77-10.21v-31.45c-9.01,3.49-17.06,5.93-24.14,7.31-7.08,1.38-14.48,2.07-22.21,2.07-12.33,0-21.76-2.58-28.28-7.73-6.53-5.15-10.63-13.43-12.28-24.83h93.81v-21.24c0-20.79-5.34-37.07-16-48.84-10.67-11.77-26.12-17.66-46.35-17.66"/>
    <path class="st0" d="M976.63,387.44c-2.95,0-5.48-.14-7.59-.41-2.11-.28-4.74-.96-7.86-2.07v-74.22c7.54-9.38,16.46-14.07,26.77-14.07,8.64,0,15.36,3.77,20.14,11.31,4.78,7.54,7.17,18.21,7.17,32.01,0,31.64-12.88,47.46-38.63,47.46M961.73,208.65h-41.94v200.04c7.54,2.94,16.65,5.42,27.32,7.45,10.67,2.02,20.69,3.03,30.07,3.03,16.74,0,31.08-3.17,43.05-9.52,11.96-6.34,21.15-15.45,27.59-27.31,6.43-11.86,9.66-25.89,9.66-42.08,0-23.55-5.11-41.71-15.32-54.49-10.21-12.78-24.69-19.18-43.45-19.18-14.35,0-26.68,4.6-36.97,13.79v-71.74"/>
    <path class="st0" d="M1141.99,266.59c-19.32,0-34.49,4.14-45.53,12.42-11.04,8.28-16.56,19.68-16.56,34.21,0,10.67,3.12,19.31,9.38,25.93,6.25,6.62,15.54,11.77,27.87,15.45l20.42,5.79c6.99,2.03,12,4.05,15.04,6.07,3.04,2.03,4.55,4.6,4.55,7.73,0,8.1-7.91,12.14-23.73,12.14-8.28,0-16.27-.78-24-2.35-7.73-1.56-16.28-4.09-25.66-7.59v33.11c5.52,2.94,12.97,5.29,22.35,7.04,9.38,1.74,18.76,2.62,28.14,2.62,20.78,0,36.6-4,47.45-12,10.85-8,16.28-19.82,16.28-35.46,0-11.96-2.81-21.06-8.41-27.32-5.62-6.26-15.41-11.41-29.39-15.45l-20.42-5.79c-6.8-2.02-11.68-4.04-14.63-6.07-2.94-2.03-4.41-4.32-4.41-6.9,0-7.54,7.35-11.31,22.08-11.31,15.63,0,30.99,2.85,46.08,8.55v-32.56c-6.07-2.58-13.34-4.6-21.8-6.07-8.47-1.47-16.83-2.21-25.11-2.21"/>
    <path class="st0" d="M773.92,309.18s-5.72,2.05-12.78,5.86c-6.6,3.57-14.08,9.73-16.14,11.88-13.4,14-16.51,25.16-17.86,36.82l-100.68-1.23c-2.9-.05-4.75-2.99-3.56-5.6l36.14-77.93c20.09,2.75,19.76,15.81,31.44,22.08,4.51,2.42,9.12,3.37,13.53,3.37,13.44,0,25.45-8.83,30.35-13.01l-39.75-86.76c-.9-1.95-1.38-4.08-1.38-6.22v-55.28c0-8.22,6.65-14.91,14.86-14.91h31.29v29.78h-16.38v37.18l50.91,113.97Z"/>
    <path class="st0" d="M820.82,388.55c-13.43,0-20.14-6.62-20.14-19.87,0-6.81,2.62-12.05,7.86-15.73,5.24-3.67,12.65-5.52,22.21-5.52h19.59v23.73c-3.31,5.34-7.54,9.57-12.69,12.69-5.15,3.13-10.76,4.69-16.83,4.69M830.21,266.59c-10.12,0-23.66.82-40.34,6.79l12.78,27.56c5.89-.91,16.18-2.34,21.77-2.34,8.64,0,14.99,1.2,19.04,3.59,4.04,2.39,6.07,7.64,6.07,15.73v5.24h-24.01c-9.64,0-18.32,1.06-26.02,3.18-8.01,2.21-14.98,5.56-20.89,10.06-11.59,8.83-17.38,20.88-17.38,36.15s4.37,25.93,13.1,34.21c2.73,2.59,5.78,4.77,9.13,6.55,7.37,3.91,16.24,5.86,26.6,5.86,9.75,0,18.62-2.11,26.62-6.34,8-4.23,14.49-10.02,19.45-17.38l5.52,20.42h27.31v-98.5c0-16.37-5.01-28.92-15.03-37.66-10.03-8.74-24.6-13.11-43.73-13.11"/>
    <path class="st0" d="M793.39,109.4l-4.57-12.32-12.32-4.56,12.32-4.56,4.57-12.33,4.56,12.33,12.32,4.56-12.32,4.56-4.56,12.32M793.39,24.33l-18.42,49.77-49.77,18.42,49.77,18.42,18.42,49.77,18.42-49.77,49.77-18.42-49.77-18.42-18.42-49.77"/>
    <polyline class="st0" points="879.5 118.17 890.98 149.21 922.03 160.7 890.98 172.19 879.5 203.24 868 172.19 836.96 160.7 868 149.21 879.5 118.17"/>
  </g>
  <g>
    <path class="st0" d="M61.12,140.48c-19.03,0-33.65-5.92-43.83-17.75-10.19-11.84-15.28-28.8-15.28-50.88s5.12-39.08,15.37-50.97C27.62,8.98,42.2,3.03,61.12,3.03s33.46,5.95,43.65,17.85c10.19,11.9,15.28,28.89,15.28,50.97s-5.1,39.04-15.28,50.88c-10.19,11.84-24.74,17.75-43.65,17.75ZM61.12,125.65c13.66,0,24-4.54,31.02-13.63,7.02-9.09,10.53-22.48,10.53-40.17s-3.51-31.27-10.53-40.36-17.36-13.63-31.02-13.63c-27.82,0-41.73,18-41.73,53.99,0,17.69,3.51,31.08,10.53,40.17,7.01,9.09,17.41,13.63,31.2,13.63Z"/>
    <path class="st0" d="M143.29,138.28V42.74h11.16l3.3,17.93c6.22-12.08,15.13-18.12,26.72-18.12,2.44,0,4.58.19,6.41.55v14.46h-4.21c-6.96,0-12.75,1.95-17.39,5.86s-7.81,9.58-9.52,17.02v57.84h-16.47Z"/>
    <path class="st0" d="M267.01,138.28l-2.75-15.37c-7.81,11.59-18.43,17.39-31.84,17.39-9.64,0-17.36-2.71-23.15-8.14-5.79-5.43-8.69-12.66-8.69-21.69,0-10,3.45-17.78,10.34-23.33,6.89-5.55,16.5-8.33,28.83-8.33h21.96v-6.04c0-6.83-1.5-11.65-4.48-14.46-2.99-2.81-8.09-4.21-15.28-4.21-4.64,0-9.58.52-14.82,1.55-5.25,1.04-11.17,2.72-17.75,5.03v-13.36c4.64-2.07,9.94-3.69,15.92-4.85,5.98-1.16,11.59-1.74,16.84-1.74,24.03,0,36.06,10.68,36.06,32.03v65.52h-11.17ZM234.44,127.12c5.61,0,10.86-1.62,15.74-4.85,4.88-3.23,8.78-7.66,11.71-13.27v-18.12h-20.5c-8.3,0-14.43,1.49-18.39,4.48-3.97,2.99-5.95,7.59-5.95,13.82,0,5.49,1.56,9.85,4.67,13.09,3.11,3.23,7.35,4.85,12.72,4.85Z"/>
    <path class="st0" d="M372.07,119.98v13.54c-7.57,4.52-17.14,6.77-28.73,6.77-14.76,0-25.9-4.3-33.4-12.9s-11.26-21.26-11.26-37.98c0-15.49,3.96-27.48,11.9-35.96,7.93-8.48,19.16-12.72,33.68-12.72,9.03,0,17.39,2.01,25.07,6.04v13.54c-8.05-4.03-15.56-6.04-22.51-6.04-20.86,0-31.3,11.71-31.3,35.14,0,12.69,2.41,22.08,7.23,28.19,4.82,6.1,12.41,9.15,22.79,9.15,4.15,0,8.35-.55,12.63-1.65,4.27-1.1,8.9-2.81,13.91-5.12Z"/>
    <path class="st0" d="M392.2,138.28V13.64l-9.52-6.04V.83h25.99v137.45h-16.47Z"/>
    <path class="st0" d="M508.23,133.52c-3.42,2.08-7.96,3.72-13.63,4.94-5.67,1.22-11.87,1.83-18.58,1.83-15.13,0-26.57-4.3-34.32-12.9-7.75-8.6-11.62-21.2-11.62-37.79s3.69-28.12,11.07-36.42c7.38-8.3,17.96-12.44,31.75-12.44,26.6,0,39.9,14.7,39.9,44.1v10.62h-66.07c.73,10.74,3.6,18.58,8.6,23.52,5,4.94,12.45,7.41,22.33,7.41,5.49,0,10.68-.55,15.56-1.65,4.88-1.1,9.88-2.81,15.01-5.12v13.91ZM472.91,54.27c-8.05,0-14.31,2.41-18.76,7.23-4.45,4.82-6.93,11.8-7.41,20.95h50.15c0-10-1.86-17.2-5.58-21.59s-9.85-6.59-18.39-6.59Z"/>
  </g>
</svg>